<svg width="20" height="20" viewBox="0 0 20 20" fill="none" xmlns="http://www.w3.org/2000/svg">
<path fill-rule="evenodd" clip-rule="evenodd" d="M10 13.75C13.866 13.75 17 11.5115 17 8.75V11.25C17 14.0115 13.866 16.25 10 16.25C6.134 16.25 3 14.0115 3 11.25V8.75C3 11.5115 6.134 13.75 10 13.75Z" fill="#EB5757"/>
<path d="M10 13.75C13.866 13.75 17 11.5114 17 8.75C17 5.98858 13.866 3.75 10 3.75C6.13401 3.75 3 5.98858 3 8.75C3 11.5114 6.13401 13.75 10 13.75Z" fill="#F2C94C"/>
<path d="M9.59848 5.79176C9.64499 5.729 9.70555 5.678 9.77532 5.64286C9.84508 5.60772 9.92211 5.58942 10.0002 5.58942C10.0783 5.58942 10.1554 5.60772 10.2251 5.64286C10.2949 5.678 10.3555 5.729 10.402 5.79176L11.409 7.15001C11.4536 7.21027 11.5113 7.25971 11.5776 7.29468C11.6439 7.32964 11.7173 7.34924 11.7922 7.35201L13.5807 7.41751C14.1085 7.43701 14.2497 8.15501 13.7685 8.37276L12.971 8.73376C12.9108 8.76099 12.8566 8.79988 12.8115 8.84818C12.7664 8.89648 12.7314 8.95323 12.7084 9.01516C12.6853 9.07708 12.6748 9.14296 12.6774 9.20897C12.68 9.27499 12.6957 9.33983 12.7235 9.39976L13.0345 10.069C13.2197 10.468 12.8365 10.8945 12.42 10.7528L10.1612 9.98476C10.0568 9.94926 9.94363 9.94926 9.83923 9.98476L7.58048 10.7528C7.16398 10.8945 6.78048 10.4678 6.96598 10.0688L7.27673 9.39976C7.30454 9.33983 7.32019 9.27499 7.32279 9.20897C7.32538 9.14296 7.31487 9.07708 7.29185 9.01516C7.26884 8.95323 7.23378 8.89648 7.18871 8.84818C7.14363 8.79988 7.08943 8.76099 7.02923 8.73376L6.23173 8.37276C5.75073 8.15526 5.89198 7.43701 6.41973 7.41776L8.20823 7.35201C8.28317 7.34924 8.35653 7.32964 8.42287 7.29468C8.48921 7.25971 8.54684 7.21027 8.59148 7.15001L9.59848 5.79176Z" fill="#EB5757"/>
</svg>
